{"title":"Terminator.Genisys.2015.CAM.x264-MenaceIISociety","uid":12154332,"size":1379467747,"categoryP":"video","categoryS":"movies","magnet":"?xt=urn:btih:deeae5ee466a3b97e80fc6f9471f7208d713f688&amp;dn=Terminator.Genisys.2015.CAM.x264-MenaceIISociety&amp;tr=udp%3A%2F%2Ftracker.openbittorrent.com%3A80&amp;tr=udp%3A%2F%2Fopen.demonii.com%3A1337&amp;tr=udp%3A%2F%2Ftracker.coppersurfer.tk%3A6969&amp;tr=udp%3A%2F%2Fexodus.desync.com%3A6969","seeders":0,"leechers":0,"uploader":"TvTeam","files":5,"time":1437733109,"description":"------------------------------------------------------------------------\n\n &lt;a href=&quot; https://www.torrenting.com&quot; rel=&quot;nofollow&quot; target=&quot;_NEW&quot;&gt; https://www.torrenting.com&lt;/a&gt;\n\nSign up is OPEN - for time being. Come and have fun\n\n.......................................................................................................................[img]http://s30.postimg.org/xl2ub574h/terminator_genisys_ver2_brxlg.jpg[/img]\n\nTerminator.Genisys.2015.CAM.x264-MenaceIISociety\n &lt;a href=&quot;\nhttp://www.imdb.com/title/tt1340138/&quot; rel=&quot;nofollow&quot; target=&quot;_NEW&quot;&gt;\nhttp://www.imdb.com/title/tt1340138/&lt;/a&gt;\n\nSource: Portugese 1080p HDCAM http://i.imgur.com/oAZFjrH.jpg\nAudio - MRG [THANKS]\n\nNote: give the source a -2 rotate, resized, applied some gain and coef settings to make the dark areas a bit more visible :) hardly any movement in ths video, its a tad blurry but its straight :)  Audio is very nice \nRated R for Retard\n \n\n General\nComplete name                            : Terminator.Genisys.2015.CAM.x264-MenaceIISociety.mp4\nFormat                                   : MPEG-4\nFormat profile                           : Base Media\nCodec ID                                 : isom\nFile size                                : 1.25 GiB\nDuration                                 : 1h 56mn\nOverall bit rate mode                    : Variable\nOverall bit rate                         : 1 528 Kbps\nEncoded date                             : UTC 2015-07-03 13:45:40\nTagged date                              : UTC 2015-07-03 13:45:40\n\nVideo\nID                                       : 1\nFormat                                   : AVC\nFormat/Info                              : Advanced Video Codec\nFormat profile                           : &lt;a class=&quot;__cf_email__&quot; href=&quot;/cdn-cgi/l/email-protection&quot; data-cfemail=&quot;6e260709062e225a405f&quot;&gt;[email&amp;#160;protected]&lt;/a&gt;&lt;script data-cfhash='f9e31' type=&quot;text/javascript&quot;&gt;\n/* &lt;![CDATA[ */!function(){try{var t=&quot;currentScript&quot;in document?document.currentScript:function(){for(var t=document.getElementsByTagName(&quot;script&quot;),e=t.length;e--;)if(t[e].getAttribute(&quot;data-cfhash&quot;))return t[e]}();if(t&amp;&amp;t.previousSibling){var e,r,n,i,c=t.previousSibling,a=c.getAttribute(&quot;data-cfemail&quot;);if(a){for(e=&quot;&quot;,r=parseInt(a.substr(0,2),16),n=2;a.length-n;n+=2)i=parseInt(a.substr(n,2),16)^r,e+=String.fromCharCode(i);e=document.createTextNode(e),c.parentNode.replaceChild(e,c)}t.parentNode.removeChild(t);}}catch(u){}}()/* ]]&gt; */&lt;/script&gt;\nFormat settings, CABAC                   : Yes\nFormat settings, ReFrames                : 3 frames\nCodec ID                                 : avc1\nCodec ID/Info                            : Advanced Video Coding\nDuration                                 : 1h 56mn\nBit rate mode                            : Variable\nBit rate                                 : 1 420 Kbps\nMaximum bit rate                         : 40.0 Mbps\nWidth                                    : 720 pixels\nHeight                                   : 304 pixels\nDisplay aspect ratio                     : 2.35:1\nFrame rate mode                          : Constant\nFrame rate                               : 29.970 fps\nColor space                              : YUV\nChroma subsampling                       : 4:2:0\nBit depth                                : 8 bits\nScan type                                : Progressive\nBits/(Pixel*Frame)                       : 0.216\nStream size                              : 1.16 GiB (93%)\nWriting library                          : x264 core 146 r2538 121396c\nEncoding settings                        : cabac=1 / ref=4 / deblock=1:-1:-1 / analyse=0x3:0x113 / me=umh / subme=9 / psy=1 / psy_rd=1.00:0.15 / mixed_ref=1 / me_range=18 / chroma_me=1 / trellis=2 / 8x8dct=1 / cqm=0 / deadzone=21,11 / fast_pskip=0 / chroma_qp_offset=-3 / threads=12 / lookahead_threads=1 / sliced_threads=0 / slices=4 / nr=0 / decimate=1 / interlaced=0 / bluray_compat=0 / constrained_intra=0 / bframes=3 / b_pyramid=1 / b_adapt=2 / b_bias=0 / direct=1 / weightb=1 / open_gop=0 / weightp=0 / keyint=29 / keyint_min=2 / scenecut=40 / intra_refresh=0 / rc_lookahead=29 / rc=2pass / mbtree=1 / bitrate=1420 / ratetol=1.0 / qcomp=0.60 / qpmin=10 / qpmax=51 / qpstep=4 / cplxblur=20.0 / qblur=0.5 / vbv_maxrate=40000 / vbv_bufsize=30000 / nal_hrd=vbr / filler=0 / ip_ratio=1.40 / aq=1:1.00\nEncoded date                             : UTC 2015-07-03 13:45:40\nTagged date                              : UTC 2015-07-03 13:49:28\nColor range                              : Full\nColor primaries                          : BT.709\nTransfer characteristics                 : BT.709\nMatrix coefficients                      : BT.709\n\nAudio\nID                                       : 2\nFormat                                   : AAC\nFormat/Info                              : Advanced Audio Codec\nFormat profile                           : LC\nCodec ID                                 : 40\nDuration                                 : 1h 56mn\nBit rate mode                            : Variable\nBit rate                                 : 104 Kbps\nMaximum bit rate                         : 115 Kbps\nChannel(s)                               : 2 channels\nChannel positions                        : Front: L R\nSampling rate                            : 48.0 KHz\nCompression mode                         : Lossy\nStream size                              : 86.7 MiB (7%)\nEncoded date                             : UTC 2015-07-03 13:39:16\nTagged date                              : UTC 2015-07-03 13:49:28\n\n[img]http://s27.postimg.org/5jhokvec3/vlcsnap_2015_07_03_15h06m21s570.jpg[/img]\n[img]http://s27.postimg.org/9iew3p2z7/vlcsnap_2015_07_03_15h09m56s823.jpg[/img]\n[img]http://s27.postimg.org/3lfm0mb83/vlcsnap_2015_07_03_15h10m19s524.jpg[/img]\n[img]http://s27.postimg.org/wdmdk3ivn/vlcsnap_2015_07_03_15h10m36s926.jpg[/img]\n[img]http://s27.postimg.org/ssqi0vec3/vlcsnap_2015_07_03_15h10m59s615.jpg[/img]\n[img]http://s27.postimg.org/7rvv27lg3/vlcsnap_2015_07_03_15h11m36s179.jpg[/img]\n[img]http://s27.postimg.org/q8uv6rqs3/vlcsnap_2015_07_03_15h11m49s390.jpg[/img]\n[img]http://s27.postimg.org/j1okx5qhf/vlcsnap_2015_07_03_15h12m32s887.jpg[/img]\n[img]http://s27.postimg.org/w4osu6637/vlcsnap_2015_07_03_15h14m55s104.jpg[/img]\n[img]http://s27.postimg.org/nl5ewexqr/vlcsnap_2015_07_03_15h15m31s586.jpg[/img]\n[img]http://s27.postimg.org/420tn1yz7/vlcsnap_2015_07_03_15h16m00s697.jpg[/img]\n[img]http://s27.postimg.org/4wnd936tv/vlcsnap_2015_07_03_15h18m29s062.jpg[/img]\n[img]http://s27.postimg.org/ddmvk0bir/vlcsnap_2015_07_03_15h18m59s542.jpg[/img]\n[img]http://s27.postimg.org/v68frvsr7/vlcsnap_2015_07_03_15h19m16s179.jpg[/img] \n\n[img]http://s17.postimg.org/r1iiyw8yn/Untitled_1.png[/img]","torrent":{"xt":"urn:btih:deeae5ee466a3b97e80fc6f9471f7208d713f688","amp;dn":"Terminator.Genisys.2015.CAM.x264-MenaceIISociety","amp;tr":["udp%3A%2F%2Ftracker.openbittorrent.com%3A80","udp%3A%2F%2Fopen.demonii.com%3A1337","udp%3A%2F%2Ftracker.coppersurfer.tk%3A6969","udp%3A%2F%2Fexodus.desync.com%3A6969"],"infoHash":"deeae5ee466a3b97e80fc6f9471f7208d713f688","infoHashBuffer":{"type":"Buffer","data":[222,234,229,238,70,106,59,151,232,15,198,249,71,31,114,8,215,19,246,136]},"announce":[],"urlList":[]}}